<?xml version="1.0" encoding="UTF-8" standalone="no"?>
<!DOCTYPE svg PUBLIC "-//W3C//DTD SVG 1.1//EN"
 "http://www.w3.org/Graphics/SVG/1.1/DTD/svg11.dtd">
<!-- Generated by graphviz version 8.0.5 (0)
 -->
<!-- Pages: 1 -->
<svg width="752pt" height="300pt"
 viewBox="0.00 0.00 752.25 300.00" xmlns="http://www.w3.org/2000/svg" xmlns:xlink="http://www.w3.org/1999/xlink">
<g id="graph0" class="graph" transform="scale(1 1) rotate(0) translate(4 296)">
<polygon fill="#0d1117" stroke="none" points="-4,4 -4,-296 748.25,-296 748.25,4 -4,4"/>
<g id="clust1" class="cluster">
<title>clusternode_Set(1)</title>
<g id="a_clust1"><a xlink:title="PhysicsSet">
<path fill="#ffffff" fill-opacity="0.266667" stroke="#ffffff" stroke-width="2" stroke-opacity="0.313725" d="M216.5,-161C216.5,-161 710.12,-161 710.12,-161 716.12,-161 722.12,-167 722.12,-173 722.12,-173 722.12,-236 722.12,-236 722.12,-242 716.12,-248 710.12,-248 710.12,-248 216.5,-248 216.5,-248 210.5,-248 204.5,-242 204.5,-236 204.5,-236 204.5,-173 204.5,-173 204.5,-167 210.5,-161 216.5,-161"/>
<text text-anchor="middle" x="463.31" y="-230.7" font-family="Helvetica,sans-Serif" font-size="14.00" fill="#ffffff">PhysicsSet</text>
</a>
</g>
</g>
<!-- set_marker_node_Set(1) -->
<!-- node_System(4) -->
<g id="node6" class="node">
<title>node_System(4)</title>
<g id="a_node6"><a xlink:title="azalea_client::movement::send_position">
<polygon fill="lightgrey" stroke="black" points="552,-153 461,-153 461,-117 552,-117 552,-153"/>
<text text-anchor="middle" x="506.5" y="-129.95" font-family="Times,serif" font-size="14.00">send_position</text>
</a>
</g>
</g>
<!-- set_marker_node_Set(1)&#45;&gt;node_System(4) -->
<g id="edge3" class="edge">
<title>set_marker_node_Set(1)&#45;&gt;node_System(4)</title>
<g id="a_edge3"><a xlink:title="PhysicsSet → send_position">
<path fill="none" stroke="#00b0cc" stroke-width="2" d="M335.33,-161C369.11,-155.84 413.06,-149.13 447.84,-143.81"/>
<polygon fill="#00b0cc" stroke="#00b0cc" stroke-width="2" points="449.3,-146.82 458.66,-141.85 448.24,-139.9 449.3,-146.82"/>
</a>
</g>
</g>
<!-- node_System(7) -->
<g id="node9" class="node">
<title>node_System(7)</title>
<g id="a_node9"><a xlink:title="azalea_client::attack::update_attack_strength_scale">
<polygon fill="lightgrey" stroke="black" points="594,-292 419,-292 419,-256 594,-256 594,-292"/>
<text text-anchor="middle" x="506.5" y="-268.95" font-family="Times,serif" font-size="14.00">update_attack_strength_scale</text>
</a>
</g>
</g>
<!-- set_marker_node_Set(1)&#45;&gt;node_System(7) -->
<g id="edge5" class="edge">
<title>set_marker_node_Set(1)&#45;&gt;node_System(7)</title>
<g id="a_edge5"><a xlink:title="PhysicsSet → update_attack_strength_scale">
<path fill="none" stroke="#44d488" stroke-width="2" d="M283.05,-168.99C284.96,-168.42 346.62,-150.56 418.35,-248"/>
<polygon fill="#44d488" stroke="#44d488" stroke-width="2" points="414.85,-249.37 424.59,-253.52 419.56,-244.19 414.85,-249.37"/>
</a>
</g>
</g>
<!-- node_System(9) -->
<g id="node11" class="node">
<title>node_System(9)</title>
<g id="a_node11"><a xlink:title="azalea::bot::stop_jumping">
<polygon fill="lightgrey" stroke="black" points="552,-106 461,-106 461,-70 552,-70 552,-106"/>
<text text-anchor="middle" x="506.5" y="-82.95" font-family="Times,serif" font-size="14.00">stop_jumping</text>
</a>
</g>
</g>
<!-- set_marker_node_Set(1)&#45;&gt;node_System(9) -->
<g id="edge7" class="edge">
<title>set_marker_node_Set(1)&#45;&gt;node_System(9)</title>
<g id="a_edge7"><a xlink:title="PhysicsSet → stop_jumping">
<path fill="none" stroke="#ee9e44" stroke-width="2" d="M299.6,-161C324.92,-149.02 374.91,-126.18 419,-111 428.4,-107.76 438.51,-104.71 448.38,-101.95"/>
<polygon fill="#ee9e44" stroke="#ee9e44" stroke-width="2" points="449.95,-104.61 458.68,-98.61 448.12,-97.85 449.95,-104.61"/>
</a>
</g>
</g>
<!-- node_System(10) -->
<g id="node12" class="node">
<title>node_System(10)</title>
<g id="a_node12"><a xlink:title="azalea::pathfinder::execute::tick_execute_path">
<polygon fill="lightgrey" stroke="black" points="744.25,-71 630,-71 630,-35 744.25,-35 744.25,-71"/>
<text text-anchor="middle" x="687.12" y="-47.95" font-family="Times,serif" font-size="14.00">tick_execute_path</text>
</a>
</g>
</g>
<!-- set_marker_node_Set(1)&#45;&gt;node_System(10) -->
<g id="edge8" class="edge">
<title>set_marker_node_Set(1)&#45;&gt;node_System(10)</title>
<g id="a_edge8"><a xlink:title="PhysicsSet → tick_execute_path">
<path fill="none" stroke="#663699" stroke-width="2" d="M289.89,-161C308.3,-140.29 361.22,-85.05 419,-64 483.1,-40.65 561.64,-40.49 616.91,-44.58"/>
<polygon fill="#663699" stroke="#663699" stroke-width="2" points="616.49,-48.31 626.74,-45.64 617.06,-41.33 616.49,-48.31"/>
</a>
</g>
</g>
<!-- node_System(11) -->
<g id="node13" class="node">
<title>node_System(11)</title>
<g id="a_node13"><a xlink:title="azalea::pathfinder::start_computing_path">
<polygon fill="lightgrey" stroke="black" points="573.75,-36 439.25,-36 439.25,0 573.75,0 573.75,-36"/>
<text text-anchor="middle" x="506.5" y="-12.95" font-family="Times,serif" font-size="14.00">start_computing_path</text>
</a>
</g>
</g>
<!-- set_marker_node_Set(1)&#45;&gt;node_System(11) -->
<g id="edge11" class="edge">
<title>set_marker_node_Set(1)&#45;&gt;node_System(11)</title>
<g id="a_edge11"><a xlink:title="PhysicsSet → start_computing_path">
<path fill="none" stroke="#99d955" stroke-width="2" d="M289.51,-161C307.68,-139.18 361.39,-78.05 419,-45 421.65,-43.48 424.39,-42.04 427.2,-40.66"/>
<polygon fill="#99d955" stroke="#99d955" stroke-width="2" points="429.32,-43.67 437.05,-36.43 426.48,-37.27 429.32,-43.67"/>
</a>
</g>
</g>
<!-- node_System(0) -->
<g id="node2" class="node">
<title>node_System(0)</title>
<g id="a_node2"><a xlink:title="azalea_physics::ai_step">
<polygon fill="#eff1f3" stroke="#b4bec7" points="536.25,-216 476.75,-216 476.75,-180 536.25,-180 536.25,-216"/>
<text text-anchor="middle" x="506.5" y="-192.57" font-family="Helvetica,sans-Serif" font-size="14.00" fill="#15191d">ai_step</text>
</a>
</g>
</g>
<!-- node_System(1) -->
<g id="node3" class="node">
<title>node_System(1)</title>
<g id="a_node3"><a xlink:title="azalea_physics::travel">
<polygon fill="#eff1f3" stroke="#b4bec7" points="714.12,-216 660.12,-216 660.12,-180 714.12,-180 714.12,-216"/>
<text text-anchor="middle" x="687.12" y="-192.57" font-family="Helvetica,sans-Serif" font-size="14.00" fill="#15191d">travel</text>
</a>
</g>
</g>
<!-- node_System(0)&#45;&gt;node_System(1) -->
<g id="edge1" class="edge">
<title>node_System(0)&#45;&gt;node_System(1)</title>
<g id="a_edge1"><a xlink:title="ai_step → travel">
<path fill="none" stroke="#eede00" stroke-width="2" d="M536.6,-198C566.57,-198 613.49,-198 646.77,-198"/>
<polygon fill="#eede00" stroke="#eede00" stroke-width="2" points="646.66,-201.5 656.66,-198 646.66,-194.5 646.66,-201.5"/>
</a>
</g>
</g>
<!-- node_System(3) -->
<g id="node4" class="node">
<title>node_System(3)</title>
<g id="a_node4"><a xlink:title="azalea_client::movement::local_player_ai_step">
<polygon fill="#eff1f3" stroke="#b4bec7" points="351.5,-216 212.5,-216 212.5,-180 351.5,-180 351.5,-216"/>
<text text-anchor="middle" x="282" y="-192.57" font-family="Helvetica,sans-Serif" font-size="14.00" fill="#15191d">local_player_ai_step</text>
</a>
</g>
</g>
<!-- node_System(3)&#45;&gt;node_System(0) -->
<g id="edge2" class="edge">
<title>node_System(3)&#45;&gt;node_System(0)</title>
<g id="a_edge2"><a xlink:title="local_player_ai_step → SystemTypeSet(ai_step&quot;)">
<path fill="none" stroke="#881877" stroke-width="2" d="M351.88,-198C388.51,-198 432.34,-198 463.79,-198"/>
<polygon fill="#881877" stroke="#881877" stroke-width="2" points="463.46,-201.5 473.46,-198 463.46,-194.5 463.46,-201.5"/>
</a>
</g>
</g>
<!-- node_System(2) -->
<g id="node5" class="node">
<title>node_System(2)</title>
<g id="a_node5"><a xlink:title="azalea_client::events::tick_listener">
<polygon fill="lightgrey" stroke="black" points="113.88,-234 31.12,-234 31.12,-198 113.88,-198 113.88,-234"/>
<text text-anchor="middle" x="72.5" y="-210.95" font-family="Times,serif" font-size="14.00">tick_listener</text>
</a>
</g>
</g>
<!-- node_System(4)&#45;&gt;node_System(10) -->
<g id="edge10" class="edge">
<title>node_System(4)&#45;&gt;node_System(10)</title>
<g id="a_edge10"><a xlink:title="SystemTypeSet(send_position&quot;) → tick_execute_path">
<path fill="none" stroke="#22c2bb" stroke-width="2" d="M552.37,-125.21C566.03,-121.53 580.89,-116.8 594,-111 613.85,-102.22 634.43,-89.65 651.09,-78.45"/>
<polygon fill="#22c2bb" stroke="#22c2bb" stroke-width="2" points="653.17,-80.89 659.43,-72.34 649.2,-75.13 653.17,-80.89"/>
</a>
</g>
</g>
<!-- node_System(5) -->
<g id="node7" class="node">
<title>node_System(5)</title>
<g id="a_node7"><a xlink:title="azalea_client::mining::continue_mining_block">
<polygon fill="lightgrey" stroke="black" points="145,-187 0,-187 0,-151 145,-151 145,-187"/>
<text text-anchor="middle" x="72.5" y="-163.95" font-family="Times,serif" font-size="14.00">continue_mining_block</text>
</a>
</g>
</g>
<!-- node_System(5)&#45;&gt;set_marker_node_Set(1) -->
<g id="edge4" class="edge">
<title>node_System(5)&#45;&gt;set_marker_node_Set(1)</title>
<g id="a_edge4"><a xlink:title="continue_mining_block → PhysicsSet">
<path fill="none" stroke="#aa3a55" stroke-width="2" d="M145.49,-169C160.39,-169 176.25,-169 191.68,-169"/>
<polygon fill="#aa3a55" stroke="#aa3a55" stroke-width="2" points="191.5,-172.5 201.5,-169 191.5,-165.5 191.5,-172.5"/>
</a>
</g>
</g>
<!-- node_System(6) -->
<g id="node8" class="node">
<title>node_System(6)</title>
<g id="a_node8"><a xlink:title="azalea_client::attack::increment_ticks_since_last_attack">
<polygon fill="lightgrey" stroke="black" points="383,-292 181,-292 181,-256 383,-256 383,-292"/>
<text text-anchor="middle" x="282" y="-268.95" font-family="Times,serif" font-size="14.00">increment_ticks_since_last_attack</text>
</a>
</g>
</g>
<!-- node_System(6)&#45;&gt;node_System(7) -->
<g id="edge6" class="edge">
<title>node_System(6)&#45;&gt;node_System(7)</title>
<g id="a_edge6"><a xlink:title="increment_ticks_since_last_attack → update_attack_strength_scale">
<path fill="none" stroke="#0090cc" stroke-width="2" d="M383.18,-274C390.7,-274 398.29,-274 405.8,-274"/>
<polygon fill="#0090cc" stroke="#0090cc" stroke-width="2" points="405.79,-277.5 415.79,-274 405.79,-270.5 405.79,-277.5"/>
</a>
</g>
</g>
<!-- node_System(8) -->
<g id="node10" class="node">
<title>node_System(8)</title>
<g id="a_node10"><a xlink:title="azalea_client::client::send_tick_broadcast">
<polygon fill="lightgrey" stroke="black" points="135.62,-281 9.38,-281 9.38,-245 135.62,-245 135.62,-281"/>
<text text-anchor="middle" x="72.5" y="-257.95" font-family="Times,serif" font-size="14.00">send_tick_broadcast</text>
</a>
</g>
</g>
<!-- node_System(11)&#45;&gt;node_System(10) -->
<g id="edge9" class="edge">
<title>node_System(11)&#45;&gt;node_System(10)</title>
<g id="a_edge9"><a xlink:title="SystemTypeSet(start_computing_path&quot;) → tick_execute_path">
<path fill="none" stroke="#3363bb" stroke-width="2" d="M574.01,-31.03C587.99,-33.77 602.76,-36.67 616.83,-39.42"/>
<polygon fill="#3363bb" stroke="#3363bb" stroke-width="2" points="617.03,-43.42 627.51,-41.91 618.37,-36.55 617.03,-43.42"/>
</a>
</g>
</g>
</g>
</svg>
